<?xml version="1.0" standalone="no"?>
<!DOCTYPE svg PUBLIC "-//W3C//DTD SVG 20010904//EN"
 "http://www.w3.org/TR/2001/REC-SVG-20010904/DTD/svg10.dtd">
<svg version="1.0" xmlns="http://www.w3.org/2000/svg"
 width="422.000000pt" height="92.000000pt" viewBox="0 0 422.000000 92.000000"
 preserveAspectRatio="xMidYMid meet">

<g transform="translate(0.000000,92.000000) scale(0.100000,-0.100000)"
fill="#000000" stroke="none">
<path d="M850 455 l0 -235 40 0 40 0 0 114 c0 112 1 115 26 135 32 25 57 27
78 5 13 -12 16 -40 16 -135 l0 -119 40 0 40 0 0 133 c0 113 -3 137 -20 164
-31 52 -79 53 -172 5 -5 -2 -8 35 -8 82 l0 86 -40 0 -40 0 0 -235z"/>
<path d="M2290 595 l-31 -94 -97 -3 -97 -3 70 -50 c38 -27 73 -53 78 -56 6 -4
-4 -46 -22 -100 -17 -51 -30 -94 -28 -95 1 -2 36 22 77 52 41 30 79 54 85 54
6 0 44 -24 85 -54 41 -30 76 -54 77 -52 2 1 -11 44 -28 95 -18 54 -28 96 -22
100 5 3 40 29 78 56 l70 50 -97 3 -97 3 -31 94 c-17 52 -33 95 -35 95 -2 0
-18 -43 -35 -95z"/>
<path d="M3710 470 l0 -211 25 -25 c19 -19 34 -24 58 -22 29 3 32 6 30 32 -1
17 -9 34 -18 38 -13 8 -15 39 -15 203 l0 195 -40 0 -40 0 0 -210z"/>
<path d="M3890 470 c0 -211 0 -211 25 -235 23 -24 78 -35 88 -17 10 14 -6 62
-19 62 -11 0 -14 36 -14 200 l0 200 -40 0 -40 0 0 -210z"/>
<path d="M119 628 c5 -13 34 -75 65 -138 53 -109 56 -119 56 -192 l0 -78 40 0
40 0 0 79 c0 76 2 83 65 215 l64 136 -43 0 -43 0 -39 -96 c-21 -52 -41 -97
-44 -99 -3 -2 -23 41 -44 96 l-39 99 -43 0 c-41 0 -43 -1 -35 -22z"/>
<path d="M560 543 c-125 -65 -112 -285 20 -324 138 -41 247 114 178 251 -13
24 -35 52 -49 63 -38 28 -106 32 -149 10z m109 -72 c27 -27 36 -84 22 -132
-18 -59 -72 -78 -111 -39 -29 29 -29 137 0 168 26 27 64 28 89 3z"/>
<path d="M1300 554 c-8 -3 -32 -12 -52 -21 -37 -16 -37 -16 -22 -44 14 -28 15
-29 44 -14 38 19 84 19 104 -1 27 -26 19 -41 -26 -48 -104 -16 -158 -69 -144
-138 16 -83 80 -96 189 -40 4 2 7 -3 7 -12 0 -12 10 -16 36 -16 l36 0 -4 133
c-2 107 -7 137 -21 159 -26 39 -96 58 -147 42z m90 -207 c0 -44 -28 -69 -72
-65 -26 2 -34 8 -36 26 -4 30 13 50 52 61 51 15 56 13 56 -22z"/>
<path d="M1700 553 c-8 -3 -27 -14 -41 -24 -26 -18 -27 -18 -32 1 -4 15 -14
20 -36 20 l-31 0 0 -165 0 -165 40 0 40 0 0 118 0 119 34 18 c67 36 86 2 86
-151 l0 -104 40 0 40 0 0 113 c0 61 -5 129 -10 149 -17 60 -74 92 -130 71z"/>
<path d="M2960 553 c-8 -3 -27 -14 -41 -24 -26 -18 -27 -18 -32 1 -4 15 -14
20 -36 20 l-31 0 0 -165 0 -165 40 0 40 0 0 120 0 119 30 16 c37 19 45 19 64
-1 13 -12 16 -40 16 -135 l0 -119 40 0 39 0 3 116 c3 114 4 117 30 137 23 17
31 19 53 9 25 -11 25 -13 25 -137 l0 -125 45 0 45 0 0 103 c-1 135 -11 186
-45 214 -34 30 -73 29 -119 -2 -44 -30 -44 -30 -64 -5 -17 21 -75 34 -102 23z"/>
<path d="M3421 543 c-50 -20 -57 -31 -38 -57 12 -17 18 -18 47 -8 64 23 110
11 110 -29 0 -12 -16 -19 -62 -29 -82 -16 -118 -50 -118 -113 0 -38 5 -49 31
-71 37 -31 71 -33 122 -6 32 18 38 18 43 5 4 -9 19 -15 40 -15 l34 0 0 95 c0
119 -14 186 -45 215 -32 30 -105 36 -164 13z m119 -203 c0 -29 -5 -42 -20 -50
-28 -15 -71 -9 -84 12 -17 28 34 70 97 77 4 1 7 -17 7 -39z"/>
</g>
</svg>
